<svg width="41" height="41" viewBox="0 0 41 41" fill="none" xmlns="http://www.w3.org/2000/svg">
<path d="M24.1362 22.3624L23.7959 20.3025L25.2376 18.8437C25.9961 18.0762 25.5776 16.7387 24.5293 16.5805L22.5369 16.2802L21.646 14.4062C21.1771 13.4199 19.8225 13.4199 19.3538 14.4062L18.4629 16.2802L16.4706 16.5807C15.4224 16.7389 15.0038 18.0762 15.7623 18.8439L17.204 20.3027L16.8637 22.3626C16.6847 23.4465 17.7806 24.273 18.7181 23.7612L20.4999 22.7886L22.2818 23.7612C23.2194 24.2728 24.3153 23.4463 24.1362 22.3624Z" fill="#C595FF"/>
<path d="M38.0434 9.98214C38.5364 8.90999 38.8294 7.72834 38.8294 6.47271V5.12484C38.8294 4.18064 38.0653 3.4165 37.1211 3.4165H36.3055C32.8888 3.4165 29.9544 5.4648 28.6238 8.38946C28.598 8.38007 28.5811 8.35615 28.5546 8.34795L20.9954 6.01078C20.6635 5.90572 20.3047 5.90896 19.9728 6.0142L12.6441 8.35154C12.6225 8.35837 12.609 8.37819 12.5879 8.38587C11.2562 5.46309 8.32317 3.4165 4.90804 3.4165H4.09231C3.14812 3.4165 2.38398 4.18064 2.38398 5.12484V6.47288C2.38398 7.72834 2.67696 8.91016 3.16998 9.98231C2.45505 10.1865 1.92188 10.8168 1.92188 11.5979V12.9475C1.92188 14.5442 2.39269 16.0228 3.16571 17.2981C2.52714 17.6261 2.12892 18.3152 2.2456 19.0618L2.38073 19.9209C2.70583 21.9919 3.75184 23.8485 5.2468 25.2066L5.23519 25.2126C4.43108 25.633 4.09573 26.6073 4.47105 27.4348L4.82809 28.2206C5.83738 30.4362 7.6108 32.076 9.82633 32.8367C10.6509 33.1217 11.4986 33.2602 12.3442 33.2717L9.37243 34.2531C8.47658 34.5485 7.98936 35.5144 8.28644 36.4102C8.58181 37.3044 9.53933 37.7982 10.4436 37.4962L19.9412 34.3614C20.1648 34.2931 20.3866 34.2196 20.6052 34.1412C20.8138 34.2162 21.0257 34.2847 21.2375 34.3498L30.7702 37.4962C30.9485 37.5565 31.1287 37.5832 31.3055 37.5832C32.0229 37.5832 32.6902 37.1277 32.9271 36.4104C33.224 35.5145 32.737 34.5487 31.8411 34.2533L28.8683 33.2718C29.7142 33.2606 30.5624 33.122 31.3874 32.8369C33.6029 32.0762 35.3763 30.4362 36.3856 28.2208L36.7427 27.435C37.118 26.6075 36.7826 25.6332 35.9785 25.2128L35.9669 25.2068C37.4619 23.8489 38.5079 21.9922 38.833 19.9228L38.9681 19.0619C39.0846 18.3154 38.6867 17.6262 38.048 17.2982C38.8209 16.0228 39.2917 14.5442 39.2917 12.9475V11.5979C39.2917 10.8168 38.7585 10.1863 38.0434 9.98214ZM35.2544 20.2629C34.8941 21.4191 34.1967 22.4017 33.2373 23.084C32.4783 23.6247 31.6101 23.9197 30.7206 23.963C30.681 23.9669 30.6414 23.9614 30.6017 23.966C30.9526 22.852 31.6204 21.9055 32.5289 21.2283C33.3925 21.0523 34.1884 20.7124 34.9349 20.2943C35.0415 20.2846 35.1471 20.2653 35.2544 20.2629ZM33.7801 17.0167C33.0909 17.1549 32.4257 17.3896 31.7858 17.7074C32.0623 15.5322 33.7182 13.7816 35.8566 13.3896C35.7257 14.8839 34.9317 16.1827 33.7801 17.0167ZM35.3929 6.91654C35.1944 9.18213 33.491 11.0222 31.289 11.4259C31.4873 9.16043 33.1924 7.32039 35.3929 6.91654ZM9.42812 17.7089C8.78835 17.392 8.12398 17.157 7.4362 17.0186C6.28308 16.1846 5.48802 14.8851 5.35682 13.3896C7.49583 13.7816 9.15223 15.5329 9.42812 17.7089ZM6.27864 20.2943C7.02518 20.7124 7.82126 21.0523 8.68465 21.2283C9.59315 21.9055 10.2606 22.8519 10.6101 23.9659C10.5703 23.9614 10.5305 23.9667 10.4907 23.9628C9.60271 23.9196 8.73488 23.6245 7.97604 23.084C7.01681 22.4017 6.31947 21.4191 5.95901 20.2629C6.06646 20.2653 6.17204 20.2846 6.27864 20.2943ZM9.92473 11.426C7.72252 11.0222 6.01914 9.18213 5.82063 6.91654C8.02114 7.32039 9.72622 9.16043 9.92473 11.426ZM8.33479 27.5351C9.27078 27.2382 10.2734 27.2498 11.221 27.5768C12.2904 27.9454 13.1929 28.6679 13.8235 29.6488C12.8875 29.9442 11.8849 29.9341 10.9373 29.6071C9.86802 29.2383 8.96533 28.516 8.33479 27.5351ZM20.6034 30.4463C18.1777 29.2885 16.1574 27.3366 14.8111 24.8158C13.0143 21.4492 12.6406 17.4052 13.7885 13.72L14.5292 11.3377L20.5 9.4324L26.686 11.3459L27.4251 13.7198C28.5729 17.405 28.1991 21.449 26.4025 24.8156C25.0578 27.3332 23.0425 29.2817 20.6034 30.4463ZM30.2763 29.6071C29.327 29.9341 28.326 29.9442 27.39 29.6488C28.0206 28.6679 28.9233 27.9439 29.9925 27.5768C30.9418 27.2498 31.9428 27.2382 32.8788 27.5351C32.2482 28.516 31.3455 29.2383 30.2763 29.6071Z" fill="#C595FF"/>
</svg>
