<svg width="41" height="41" viewBox="0 0 41 41" fill="none" xmlns="http://www.w3.org/2000/svg">
<path d="M32.9287 26.7627C32.2614 26.0954 31.1803 26.0954 30.513 26.7627L29.8082 27.4675L29.2034 26.8628C28.5361 26.1955 27.455 26.1955 26.7877 26.8628C26.1204 27.5301 26.1204 28.6112 26.7877 29.2785L27.3925 29.8832L26.7627 30.513C26.0954 31.1803 26.0954 32.2614 26.7627 32.9287C27.0964 33.2624 27.5334 33.4292 27.9705 33.4292C28.4076 33.4292 28.8447 33.2624 29.1784 32.9287L29.8082 32.2989L30.513 33.0038C30.8467 33.3374 31.2838 33.5043 31.7209 33.5043C32.158 33.5043 32.5951 33.3374 32.9287 33.0038C33.596 32.3365 33.596 31.2554 32.9287 30.5881L32.2239 29.8832L32.9287 29.1784C33.596 28.5111 33.596 27.43 32.9287 26.7627Z" fill="#C595FF"/>
<path d="M37.2045 24.0133C37.1044 23.8815 36.9843 23.7481 36.8625 23.6146L35.6046 24.7707L36.7391 23.4795C36.2269 22.9189 35.6764 22.4518 35.1058 22.0898C35.1025 22.0865 35.0975 22.0831 35.0925 22.0798C35.0608 22.0564 35.0291 22.0331 34.9957 22.0114C34.974 21.9964 34.9507 21.983 34.929 21.968C34.913 21.9582 34.8954 21.9513 34.8795 21.9415C35.5822 18.9319 35.926 15.8934 35.7865 13.428C35.6263 10.7304 33.8997 8.37308 31.3889 7.42215L21.1055 3.52668C20.7168 3.37987 20.288 3.38154 19.8993 3.52501L9.58927 7.39879C6.96671 8.36807 5.22835 10.7988 5.15995 13.5748C4.99145 18.5096 6.6881 28.3676 11.9499 33.8112C14.3689 36.3137 17.2217 37.5832 20.4315 37.5832C21.6207 37.5832 22.767 37.4079 23.8549 37.0633C23.902 37.1015 23.9288 37.1367 23.985 37.1745C25.6299 38.5408 27.722 39.2916 29.8957 39.2916C32.1813 39.2916 34.3668 38.4724 36.0284 37.0027C38.1021 35.2309 39.2916 32.6401 39.2916 29.8957C39.2916 28.4243 38.9429 26.9629 38.2806 25.6633C37.9536 25.0277 37.5732 24.4488 37.2045 24.0133ZM20.4315 34.1666C18.1843 34.1666 16.1573 33.2473 14.4056 31.4372C10.1181 27.0013 8.41479 18.3895 8.57494 13.6749C8.60831 12.2902 9.47249 11.0857 10.7821 10.6019L20.4982 6.95002L30.1794 10.6186C31.4322 11.0924 32.2948 12.2752 32.3765 13.6265C32.4883 15.6101 32.2347 18.151 31.6875 20.6701C31.1714 20.57 30.6486 20.5323 30.1252 20.5228C30.0477 20.521 29.9736 20.4999 29.8957 20.4999C29.696 20.4999 29.4993 20.5195 29.3014 20.532C29.269 20.5343 29.2368 20.5347 29.2043 20.5372C27.5653 20.6575 26.0087 21.2011 24.6748 22.097C24.6541 22.1108 24.6336 22.1246 24.6129 22.1385C24.325 22.3352 24.0488 22.5474 23.7842 22.7764C23.7314 22.8215 23.6768 22.8638 23.6249 22.9102C23.3377 23.1704 23.0614 23.4439 22.8072 23.7414C21.319 25.4247 20.4999 27.6102 20.4999 29.8957C20.4999 30.9868 20.6784 32.0245 21.0104 32.917C21.1358 33.3043 21.2958 33.679 21.4716 34.0329C21.4821 34.0541 21.4886 34.0789 21.4992 34.0998C21.1539 34.1449 20.7985 34.1666 20.4315 34.1666ZM33.7879 34.4252C31.7042 36.2636 28.2191 36.3053 26.1037 34.4919C26.062 34.4569 26.0203 34.4235 25.9753 34.3918C25.9753 34.3918 25.9736 34.3918 25.9736 34.3901C25.8284 34.2583 25.6966 34.1282 25.4664 33.8813C25.2295 33.6444 25.0577 33.4242 24.8592 33.0805C24.5972 32.6885 24.3954 32.2797 24.2386 31.7976C24.025 31.2204 23.9166 30.5814 23.9166 29.8957C23.9166 28.4443 24.4321 27.063 25.3847 25.9819C26.8563 24.2616 29.3253 23.569 31.4791 24.1401C31.7391 24.2096 31.9973 24.2883 32.2464 24.3954C32.247 24.3956 32.2476 24.3955 32.2482 24.3957C32.5507 24.5269 32.8258 24.6853 33.1022 24.8558C33.1072 24.8592 33.1122 24.8642 33.1172 24.8675C33.1589 24.8992 33.2023 24.9292 33.2473 24.9559C33.5743 25.1595 33.903 25.4397 34.1983 25.7617L34.3468 25.9269C34.3935 25.9769 34.4402 26.0253 34.5336 26.1437C34.7939 26.4524 35.0324 26.8177 35.241 27.2215C35.6547 28.0356 35.8749 28.9615 35.8749 29.8957C35.8749 31.6408 35.1225 33.284 33.7879 34.4252Z" fill="#C595FF"/>
</svg>
